<mxfile host="Electron" agent="Mozilla/5.0 (Windows NT 10.0; Win64; x64) AppleWebKit/537.36 (KHTML, like Gecko) draw.io/24.7.17 Chrome/128.0.6613.36 Electron/32.0.1 Safari/537.36" version="24.7.17">
  <diagram name="Page-1" id="D3zoA3_o_WbkCqvVTb0W">
    <mxGraphModel dx="2350" dy="899" grid="1" gridSize="10" guides="1" tooltips="1" connect="1" arrows="1" fold="1" page="1" pageScale="1" pageWidth="850" pageHeight="1100" math="0" shadow="0">
      <root>
        <mxCell id="0" />
        <mxCell id="1" parent="0" />
        <mxCell id="4RE3UwQOoAmRrcHWwyXb-2" style="edgeStyle=orthogonalEdgeStyle;rounded=0;orthogonalLoop=1;jettySize=auto;html=1;endArrow=none;endFill=0;" edge="1" parent="1" source="661LFYDpjbeSVGGAJL8V-1" target="661LFYDpjbeSVGGAJL8V-3">
          <mxGeometry relative="1" as="geometry" />
        </mxCell>
        <mxCell id="661LFYDpjbeSVGGAJL8V-1" value="Управління даними про пам&#39;ятки" style="rounded=0;whiteSpace=wrap;html=1;" parent="1" vertex="1">
          <mxGeometry x="340" y="120" width="210" height="60" as="geometry" />
        </mxCell>
        <mxCell id="661LFYDpjbeSVGGAJL8V-2" value="Реєстрація та оновлення даних про пам&#39;ятки" style="rounded=0;whiteSpace=wrap;html=1;" parent="1" vertex="1">
          <mxGeometry x="60" y="220" width="210" height="60" as="geometry" />
        </mxCell>
        <mxCell id="661LFYDpjbeSVGGAJL8V-3" value="Моніторинг стану пам&#39;яток" style="rounded=0;whiteSpace=wrap;html=1;" parent="1" vertex="1">
          <mxGeometry x="340" y="220" width="210" height="60" as="geometry" />
        </mxCell>
        <mxCell id="661LFYDpjbeSVGGAJL8V-4" value="Управління договорами на експлуатацію" style="rounded=0;whiteSpace=wrap;html=1;" parent="1" vertex="1">
          <mxGeometry x="620" y="220" width="210" height="60" as="geometry" />
        </mxCell>
        <mxCell id="661LFYDpjbeSVGGAJL8V-5" value="Введення нових пам&#39;яток" style="rounded=0;whiteSpace=wrap;html=1;" parent="1" vertex="1">
          <mxGeometry x="-130" y="350" width="110" height="90" as="geometry" />
        </mxCell>
        <mxCell id="661LFYDpjbeSVGGAJL8V-6" value="Оновлення інформації про пам&#39;ятки" style="rounded=0;whiteSpace=wrap;html=1;" parent="1" vertex="1">
          <mxGeometry y="350" width="110" height="90" as="geometry" />
        </mxCell>
        <mxCell id="661LFYDpjbeSVGGAJL8V-7" value="Видалення застарілих записів" style="rounded=0;whiteSpace=wrap;html=1;" parent="1" vertex="1">
          <mxGeometry x="130" y="350" width="110" height="90" as="geometry" />
        </mxCell>
        <mxCell id="661LFYDpjbeSVGGAJL8V-8" value="Збір даних про стан пам&#39;яток" style="rounded=0;whiteSpace=wrap;html=1;" parent="1" vertex="1">
          <mxGeometry x="260" y="350" width="110" height="90" as="geometry" />
        </mxCell>
        <mxCell id="661LFYDpjbeSVGGAJL8V-9" value="Аналіз та оцінка стану пам&#39;яток" style="rounded=0;whiteSpace=wrap;html=1;" parent="1" vertex="1">
          <mxGeometry x="390" y="350" width="110" height="90" as="geometry" />
        </mxCell>
        <mxCell id="661LFYDpjbeSVGGAJL8V-10" value="Формування звітів про стан пам&#39;яток" style="rounded=0;whiteSpace=wrap;html=1;" parent="1" vertex="1">
          <mxGeometry x="520" y="350" width="110" height="90" as="geometry" />
        </mxCell>
        <mxCell id="661LFYDpjbeSVGGAJL8V-11" value="Оформлення нових договорів" style="rounded=0;whiteSpace=wrap;html=1;" parent="1" vertex="1">
          <mxGeometry x="650" y="350" width="110" height="90" as="geometry" />
        </mxCell>
        <mxCell id="661LFYDpjbeSVGGAJL8V-12" value="Контроль виконання договорів" style="rounded=0;whiteSpace=wrap;html=1;" parent="1" vertex="1">
          <mxGeometry x="780" y="350" width="110" height="90" as="geometry" />
        </mxCell>
        <mxCell id="661LFYDpjbeSVGGAJL8V-13" value="Закриття або продовження договорів" style="rounded=0;whiteSpace=wrap;html=1;" parent="1" vertex="1">
          <mxGeometry x="910" y="350" width="110" height="90" as="geometry" />
        </mxCell>
        <mxCell id="4RE3UwQOoAmRrcHWwyXb-1" value="&lt;span style=&quot;color: rgb(0, 0, 0); font-family: Helvetica; font-size: 12px; font-style: normal; font-variant-ligatures: normal; font-variant-caps: normal; font-weight: 400; letter-spacing: normal; orphans: 2; text-align: left; text-indent: 0px; text-transform: none; widows: 2; word-spacing: 0px; -webkit-text-stroke-width: 0px; white-space: normal; background-color: rgb(251, 251, 251); text-decoration-thickness: initial; text-decoration-style: initial; text-decoration-color: initial; display: inline !important; float: none;&quot;&gt;Title: Управління обліком історичних пам&#39;яток&lt;/span&gt;&lt;div style=&quot;forced-color-adjust: none; color: rgb(0, 0, 0); font-family: Helvetica; font-size: 12px; font-style: normal; font-variant-ligatures: normal; font-variant-caps: normal; font-weight: 400; letter-spacing: normal; orphans: 2; text-align: left; text-indent: 0px; text-transform: none; widows: 2; word-spacing: 0px; -webkit-text-stroke-width: 0px; white-space: normal; background-color: rgb(251, 251, 251); text-decoration-thickness: initial; text-decoration-style: initial; text-decoration-color: initial;&quot;&gt;Node: -&lt;/div&gt;&lt;div style=&quot;forced-color-adjust: none; color: rgb(0, 0, 0); font-family: Helvetica; font-size: 12px; font-style: normal; font-variant-ligatures: normal; font-variant-caps: normal; font-weight: 400; letter-spacing: normal; orphans: 2; text-align: left; text-indent: 0px; text-transform: none; widows: 2; word-spacing: 0px; -webkit-text-stroke-width: 0px; white-space: normal; background-color: rgb(251, 251, 251); text-decoration-thickness: initial; text-decoration-style: initial; text-decoration-color: initial;&quot;&gt;Context: TOP&lt;/div&gt;&lt;div style=&quot;forced-color-adjust: none; color: rgb(0, 0, 0); font-family: Helvetica; font-size: 12px; font-style: normal; font-variant-ligatures: normal; font-variant-caps: normal; font-weight: 400; letter-spacing: normal; orphans: 2; text-align: left; text-indent: 0px; text-transform: none; widows: 2; word-spacing: 0px; -webkit-text-stroke-width: 0px; white-space: normal; background-color: rgb(251, 251, 251); text-decoration-thickness: initial; text-decoration-style: initial; text-decoration-color: initial;&quot;&gt;Author: Ковальов Олександр&lt;/div&gt;" style="text;whiteSpace=wrap;html=1;" vertex="1" parent="1">
          <mxGeometry x="605" y="80" width="335" height="80" as="geometry" />
        </mxCell>
        <mxCell id="4RE3UwQOoAmRrcHWwyXb-3" value="" style="endArrow=none;html=1;rounded=0;entryX=0.5;entryY=1;entryDx=0;entryDy=0;exitX=0.5;exitY=0;exitDx=0;exitDy=0;" edge="1" parent="1" source="661LFYDpjbeSVGGAJL8V-9" target="661LFYDpjbeSVGGAJL8V-3">
          <mxGeometry width="50" height="50" relative="1" as="geometry">
            <mxPoint x="450" y="250" as="sourcePoint" />
            <mxPoint x="500" y="200" as="targetPoint" />
          </mxGeometry>
        </mxCell>
        <mxCell id="4RE3UwQOoAmRrcHWwyXb-4" value="" style="endArrow=none;html=1;rounded=0;entryX=0.25;entryY=1;entryDx=0;entryDy=0;exitX=0.5;exitY=0;exitDx=0;exitDy=0;" edge="1" parent="1" source="661LFYDpjbeSVGGAJL8V-8" target="661LFYDpjbeSVGGAJL8V-3">
          <mxGeometry width="50" height="50" relative="1" as="geometry">
            <mxPoint x="455" y="360" as="sourcePoint" />
            <mxPoint x="455" y="290" as="targetPoint" />
          </mxGeometry>
        </mxCell>
        <mxCell id="4RE3UwQOoAmRrcHWwyXb-5" value="" style="endArrow=none;html=1;rounded=0;entryX=0.75;entryY=1;entryDx=0;entryDy=0;exitX=0.5;exitY=0;exitDx=0;exitDy=0;" edge="1" parent="1" source="661LFYDpjbeSVGGAJL8V-10" target="661LFYDpjbeSVGGAJL8V-3">
          <mxGeometry width="50" height="50" relative="1" as="geometry">
            <mxPoint x="325" y="360" as="sourcePoint" />
            <mxPoint x="403" y="290" as="targetPoint" />
          </mxGeometry>
        </mxCell>
        <mxCell id="4RE3UwQOoAmRrcHWwyXb-6" value="" style="endArrow=none;html=1;rounded=0;entryX=0.25;entryY=1;entryDx=0;entryDy=0;exitX=0.5;exitY=0;exitDx=0;exitDy=0;" edge="1" parent="1" source="661LFYDpjbeSVGGAJL8V-2" target="661LFYDpjbeSVGGAJL8V-1">
          <mxGeometry width="50" height="50" relative="1" as="geometry">
            <mxPoint x="585" y="360" as="sourcePoint" />
            <mxPoint x="508" y="290" as="targetPoint" />
          </mxGeometry>
        </mxCell>
        <mxCell id="4RE3UwQOoAmRrcHWwyXb-7" value="" style="endArrow=none;html=1;rounded=0;entryX=0.75;entryY=1;entryDx=0;entryDy=0;exitX=0.5;exitY=0;exitDx=0;exitDy=0;" edge="1" parent="1" source="661LFYDpjbeSVGGAJL8V-4" target="661LFYDpjbeSVGGAJL8V-1">
          <mxGeometry width="50" height="50" relative="1" as="geometry">
            <mxPoint x="175" y="230" as="sourcePoint" />
            <mxPoint x="403" y="190" as="targetPoint" />
          </mxGeometry>
        </mxCell>
        <mxCell id="4RE3UwQOoAmRrcHWwyXb-8" value="" style="endArrow=none;html=1;rounded=0;entryX=0.25;entryY=1;entryDx=0;entryDy=0;exitX=0.5;exitY=0;exitDx=0;exitDy=0;" edge="1" parent="1" source="661LFYDpjbeSVGGAJL8V-11" target="661LFYDpjbeSVGGAJL8V-4">
          <mxGeometry width="50" height="50" relative="1" as="geometry">
            <mxPoint x="735" y="230" as="sourcePoint" />
            <mxPoint x="508" y="190" as="targetPoint" />
          </mxGeometry>
        </mxCell>
        <mxCell id="4RE3UwQOoAmRrcHWwyXb-9" value="" style="endArrow=none;html=1;rounded=0;entryX=0.75;entryY=1;entryDx=0;entryDy=0;exitX=0.5;exitY=0;exitDx=0;exitDy=0;" edge="1" parent="1" source="661LFYDpjbeSVGGAJL8V-13" target="661LFYDpjbeSVGGAJL8V-4">
          <mxGeometry width="50" height="50" relative="1" as="geometry">
            <mxPoint x="962" y="350" as="sourcePoint" />
            <mxPoint x="930" y="280" as="targetPoint" />
          </mxGeometry>
        </mxCell>
        <mxCell id="4RE3UwQOoAmRrcHWwyXb-10" value="" style="endArrow=none;html=1;rounded=0;entryX=0.5;entryY=1;entryDx=0;entryDy=0;exitX=0.5;exitY=0;exitDx=0;exitDy=0;" edge="1" parent="1" source="661LFYDpjbeSVGGAJL8V-12" target="661LFYDpjbeSVGGAJL8V-4">
          <mxGeometry width="50" height="50" relative="1" as="geometry">
            <mxPoint x="917" y="360" as="sourcePoint" />
            <mxPoint x="730" y="290" as="targetPoint" />
          </mxGeometry>
        </mxCell>
        <mxCell id="4RE3UwQOoAmRrcHWwyXb-11" value="" style="endArrow=none;html=1;rounded=0;entryX=0.75;entryY=1;entryDx=0;entryDy=0;exitX=0.5;exitY=0;exitDx=0;exitDy=0;" edge="1" parent="1" source="661LFYDpjbeSVGGAJL8V-7" target="661LFYDpjbeSVGGAJL8V-2">
          <mxGeometry width="50" height="50" relative="1" as="geometry">
            <mxPoint x="325" y="360" as="sourcePoint" />
            <mxPoint x="403" y="290" as="targetPoint" />
          </mxGeometry>
        </mxCell>
        <mxCell id="4RE3UwQOoAmRrcHWwyXb-12" value="" style="endArrow=none;html=1;rounded=0;entryX=0.5;entryY=1;entryDx=0;entryDy=0;exitX=0.5;exitY=0;exitDx=0;exitDy=0;" edge="1" parent="1" source="661LFYDpjbeSVGGAJL8V-6" target="661LFYDpjbeSVGGAJL8V-2">
          <mxGeometry width="50" height="50" relative="1" as="geometry">
            <mxPoint x="195" y="360" as="sourcePoint" />
            <mxPoint x="228" y="290" as="targetPoint" />
          </mxGeometry>
        </mxCell>
        <mxCell id="4RE3UwQOoAmRrcHWwyXb-13" value="" style="endArrow=none;html=1;rounded=0;entryX=0.25;entryY=1;entryDx=0;entryDy=0;exitX=0.5;exitY=0;exitDx=0;exitDy=0;" edge="1" parent="1" source="661LFYDpjbeSVGGAJL8V-5" target="661LFYDpjbeSVGGAJL8V-2">
          <mxGeometry width="50" height="50" relative="1" as="geometry">
            <mxPoint x="65" y="360" as="sourcePoint" />
            <mxPoint x="175" y="290" as="targetPoint" />
          </mxGeometry>
        </mxCell>
      </root>
    </mxGraphModel>
  </diagram>
</mxfile>
